<?xml version="1.0" standalone="no"?>
<!DOCTYPE svg PUBLIC "-//W3C//DTD SVG 20010904//EN"
 "http://www.w3.org/TR/2001/REC-SVG-20010904/DTD/svg10.dtd">
<svg version="1.0" xmlns="http://www.w3.org/2000/svg"
 width="533.000000pt" height="225.000000pt" viewBox="0 0 533.000000 225.000000"
 preserveAspectRatio="xMidYMid meet">

<g transform="translate(0.000000,225.000000) scale(0.100000,-0.100000)"
fill="#000000" stroke="none">
<path d="M2346 2232 c-3 -4 -10 -38 -17 -75 -12 -65 -7 -122 17 -206 6 -21 5
-22 -14 -12 -11 6 -27 11 -34 11 -7 -1 1 -8 17 -17 46 -25 126 -94 119 -104
-11 -18 -42 -8 -181 63 -90 46 -138 75 -130 80 7 5 -1 8 -20 8 -37 0 -38 -2
-22 -33 43 -83 172 -188 229 -186 17 0 9 5 -25 16 -40 12 -65 31 -124 91 -41
42 -69 78 -63 80 5 1 78 -30 161 -70 150 -73 179 -99 121 -106 -14 -2 -39 -10
-57 -18 -48 -22 -77 -17 -123 21 -23 19 -46 35 -51 35 -19 0 -8 -31 16 -42 37
-17 31 -26 -22 -33 -27 -3 -67 -11 -90 -17 -44 -11 -68 -4 -60 16 7 19 -9 40
-23 31 -6 -4 -10 -18 -7 -31 5 -30 -13 -31 -38 -4 -16 18 -17 24 -5 59 13 41
8 61 -16 61 -21 0 -27 -22 -14 -56 l11 -29 -26 25 -27 25 19 -35 c10 -19 26
-41 36 -48 29 -22 19 -32 -32 -32 -40 0 -51 4 -56 19 -8 27 -30 42 -49 35 -20
-8 -21 -28 -1 -44 24 -20 12 -22 -29 -5 -21 9 -35 11 -31 6 3 -6 13 -11 21
-11 8 0 14 -4 14 -10 0 -5 -14 -10 -31 -10 -25 0 -30 3 -25 16 6 15 4 15 -10
3 -15 -12 -14 -14 1 -25 9 -6 25 -10 35 -7 19 5 19 4 6 -23 -28 -53 3 -61 36
-9 15 22 31 35 45 35 20 0 21 -3 12 -23 -6 -13 -25 -29 -42 -35 l-32 -13 25
-19 c15 -12 34 -18 47 -15 36 8 35 -12 -2 -35 -26 -16 -47 -21 -83 -18 -34 2
-46 -1 -45 -9 2 -9 -10 -13 -33 -13 -28 0 -35 3 -30 15 4 10 -1 15 -14 15 -27
0 -26 -27 1 -35 12 -4 45 -4 75 0 30 3 54 4 54 0 0 -3 -21 -19 -47 -35 -43
-28 -53 -30 -108 -25 -55 5 -58 2 -15 -11 22 -8 -8 -24 -44 -24 -24 0 -27 2
-16 15 17 21 0 18 -30 -5 -34 -26 -22 -32 44 -22 33 5 56 5 56 0 0 -17 -85
-48 -135 -48 -45 -1 -48 -2 -32 -14 17 -13 16 -14 -10 -19 -94 -18 -121 -18
-119 -1 1 9 11 23 21 30 10 8 13 14 6 14 -14 0 -61 -48 -61 -63 0 -14 147 2
203 23 52 20 66 7 15 -15 -42 -17 -85 -62 -93 -97 -14 -57 60 -17 94 50 20 39
70 102 80 102 3 0 6 -22 7 -50 1 -62 10 -72 36 -40 17 21 19 34 15 78 -5 51
-5 54 26 73 43 26 47 25 47 -18 0 -21 5 -45 10 -53 15 -25 55 76 41 106 -9 20
-6 26 18 44 37 26 41 25 41 -4 0 -14 5 -37 10 -52 13 -33 28 -22 40 30 10 44
3 47 -12 5 -8 -23 -13 -27 -19 -17 -12 18 -11 61 1 53 6 -3 10 -1 10 5 0 6 4
9 9 5 5 -3 11 5 13 17 2 15 24 33 73 60 79 42 85 44 85 23 0 -9 -10 -15 -22
-16 -22 -1 -22 -1 2 -8 14 -5 45 -18 70 -31 25 -13 57 -23 72 -22 68 2 -8 -33
-102 -48 -41 -6 -92 -13 -112 -17 -27 -4 -38 -2 -38 7 0 26 34 81 59 95 14 8
20 14 13 15 -20 0 -70 -54 -78 -84 -11 -44 5 -51 93 -37 43 7 98 17 122 22 48
11 125 65 115 80 -3 5 8 25 24 44 23 26 32 30 36 19 3 -8 2 -13 -3 -9 -5 3
-19 -8 -31 -25 -12 -16 -19 -30 -16 -30 3 0 -9 -30 -28 -67 -35 -69 -72 -180
-63 -189 7 -7 84 33 125 64 18 14 51 53 74 88 47 74 48 74 92 -41 l26 -70 79
-42 c61 -33 90 -43 127 -43 25 0 64 -5 85 -12 36 -10 42 -9 97 25 32 19 71 39
87 42 59 13 65 17 80 46 9 16 24 29 34 29 9 0 28 12 42 26 19 20 24 36 23 76
l-1 50 16 -40 c21 -54 56 -89 115 -118 28 -13 51 -24 53 -24 2 0 3 21 3 48 0
77 -18 123 -66 170 -40 37 -42 42 -22 42 13 0 39 3 59 6 35 6 36 5 32 -22 -3
-21 4 -38 25 -64 17 -19 33 -32 38 -28 12 13 6 68 -11 95 -9 13 -15 26 -13 27
2 1 24 1 49 -2 41 -3 48 -7 52 -31 12 -57 49 -141 63 -141 19 0 19 79 -1 126
l-15 36 38 -6 c96 -17 89 -11 84 -71 -4 -47 0 -60 24 -99 27 -42 30 -44 46
-29 24 22 23 89 -2 131 -11 17 -18 32 -15 32 2 0 29 -12 60 -27 40 -20 55 -33
55 -48 0 -11 12 -54 27 -95 l28 -75 7 40 c11 63 10 72 -18 105 -15 17 -25 33
-22 35 9 10 117 -49 128 -70 7 -13 18 -21 26 -18 14 5 29 -66 22 -108 -4 -21
-7 -19 -26 21 -12 25 -22 59 -23 75 -1 25 -2 26 -6 7 -6 -30 37 -154 51 -149
6 2 11 33 11 70 0 37 2 67 5 67 19 -2 40 -32 40 -59 0 -37 30 -101 62 -131 32
-29 40 -25 33 18 -13 74 -27 102 -72 142 l-46 40 44 -6 c35 -4 51 0 79 17 l35
23 -40 8 c-22 4 -55 11 -72 14 -22 5 -41 1 -58 -10 -24 -16 -28 -16 -65 5 -22
12 -37 25 -35 29 2 4 29 13 60 20 52 12 90 35 49 29 -11 -2 -37 1 -59 6 -50
11 -65 8 -91 -16 -21 -19 -24 -19 -60 -4 l-38 16 51 29 c28 16 54 33 56 37 3
5 -24 9 -60 10 -56 2 -68 -1 -87 -21 -19 -21 -23 -22 -54 -9 l-32 13 47 45
c25 25 44 47 42 50 -10 9 -114 -35 -132 -57 -14 -16 -28 -21 -55 -20 -20 2
-38 5 -41 7 -2 3 8 17 23 32 29 28 51 63 41 63 -3 0 -16 -6 -28 -14 -12 -8
-38 -17 -57 -20 -31 -6 -29 -3 22 24 69 36 77 46 38 52 -17 3 -30 1 -30 -3 0
-4 -15 -10 -32 -12 -18 -2 -12 -3 15 -2 26 1 47 1 47 -1 0 -2 -49 -28 -109
-58 -126 -62 -194 -76 -263 -55 -31 10 -44 20 -46 36 -3 20 2 22 50 26 l53 3
-57 2 c-54 2 -58 4 -58 26 0 19 10 28 48 44 26 11 54 22 62 25 8 2 2 3 -15 0
-16 -2 -47 -12 -68 -23 -21 -11 -39 -20 -41 -20 -1 0 -9 19 -16 43 -7 23 -28
60 -47 82 -19 22 -38 46 -44 53 -5 6 -15 12 -22 12 -9 0 -9 -2 -1 -8 16 -10
94 -105 94 -114 0 -18 -39 -6 -45 13 -8 24 -62 59 -90 58 -15 0 -12 -3 8 -9
16 -5 35 -14 44 -22 18 -14 56 -98 49 -106 -9 -9 -36 7 -43 25 -11 31 -35 53
-57 52 -18 -1 -18 -2 4 -8 32 -9 46 -38 61 -124 7 -47 8 -72 1 -79 -11 -11
-32 46 -32 85 0 22 -54 73 -85 81 -11 3 -39 13 -61 22 -34 15 -37 18 -19 25
16 6 13 8 -15 8 -25 1 -31 -2 -20 -9 12 -7 10 -11 -10 -20 -23 -10 -23 -10 -2
-6 30 6 94 -12 87 -25 -4 -5 -2 -9 4 -9 15 0 91 -72 91 -87 0 -20 -14 -16 -40
12 -26 28 -70 34 -70 10 0 -8 -4 -15 -9 -15 -4 0 -6 -11 -3 -25 5 -28 1 -29
-45 -16 -23 7 -37 5 -50 -5 -26 -19 -35 -17 -28 7 5 15 4 19 -4 15 -6 -4 -11
-22 -11 -40 0 -40 -21 -63 -39 -42 -7 8 -9 26 -6 43 5 22 4 25 -5 13 -9 -12
-10 -8 -6 19 6 35 22 61 37 61 4 0 2 -12 -6 -27 -14 -27 -10 -80 8 -98 6 -7 7
-1 3 18 -11 48 7 66 62 62 41 -3 44 -2 22 7 -24 11 -23 11 17 18 24 3 46 10
50 14 5 4 -1 6 -12 4 -27 -4 -35 38 -8 45 10 2 -7 2 -37 -1 -30 -2 -59 -8 -64
-13 -5 -4 1 -5 14 -2 14 4 21 2 17 -4 -4 -6 3 -8 18 -5 17 3 25 0 25 -10 0 -9
-19 -19 -51 -27 -59 -15 -73 -9 -32 14 15 9 21 14 12 11 -15 -4 -17 7 -10 46
0 4 10 10 22 13 11 4 18 9 15 12 -3 3 -20 -4 -39 -16 -19 -11 -42 -21 -51 -21
-9 0 -27 -21 -42 -51 -17 -35 -29 -48 -36 -41 -7 7 -6 17 2 32 6 12 9 24 6 27
-3 3 -10 -7 -16 -22 -8 -22 -6 -39 10 -84 11 -32 20 -78 20 -104 0 -46 24 -87
50 -87 6 0 10 -4 10 -10 0 -17 -46 -11 -62 8 -17 18 -43 175 -33 192 3 6 1 10
-4 10 -6 0 -11 -10 -11 -21 0 -18 -2 -19 -15 -9 -8 7 -15 19 -15 26 0 8 -4 14
-10 14 -6 0 -6 -9 0 -26 13 -33 13 -134 0 -134 -5 0 -17 11 -26 25 -13 20 -15
38 -10 83 9 71 15 92 27 92 5 0 9 -8 10 -17 0 -15 2 -15 7 -3 16 34 66 102 70
92 1 -5 15 2 30 17 15 14 37 32 47 39 11 7 6 6 -12 -3 -17 -8 -38 -22 -47 -30
-13 -14 -16 -14 -16 -2 0 8 18 31 40 51 31 28 48 36 78 36 l37 -1 -27 -15
c-38 -20 -35 -23 12 -11 23 7 35 14 28 18 -15 9 83 39 136 41 37 1 38 2 8 5
-18 2 -66 -3 -108 -12 -72 -17 -98 -15 -78 5 12 12 121 40 156 40 15 0 29 4
32 8 7 11 -42 38 -51 29 -3 -4 1 -7 10 -7 36 0 15 -18 -29 -25 -25 -3 -64 -13
-86 -21 -22 -8 -54 -14 -70 -14 -37 0 -96 -25 -125 -52 -28 -26 -29 -19 -3 32
26 50 44 60 122 62 l63 2 -57 3 c-57 4 -58 4 -58 35 0 49 -48 123 -121 188
-37 33 -70 57 -73 52z m35 -59 c36 -80 59 -154 59 -189 0 -18 5 -45 10 -60 11
-28 5 -64 -11 -64 -5 0 -22 12 -39 28 -22 20 -35 47 -51 108 -19 73 -20 88 -9
152 6 40 13 72 15 72 2 0 14 -21 26 -47z m80 -50 c74 -81 88 -145 38 -182 -17
-13 -32 -21 -35 -19 -2 2 -8 33 -13 69 -5 35 -18 89 -30 119 -12 30 -21 56
-21 58 0 8 38 -20 61 -45z m149 -233 c0 -5 -6 -10 -12 -10 -21 0 -85 -64 -106
-106 -11 -22 -29 -47 -40 -57 -19 -17 -20 -17 -26 5 -3 13 -6 33 -6 45 0 27
68 99 112 118 39 17 78 19 78 5z m-696 -59 c4 -5 3 -17 0 -26 -5 -13 -8 -14
-15 -3 -5 7 -9 19 -9 26 0 14 16 16 24 3z m1117 -65 c26 -60 39 -134 30 -176
-4 -19 -3 -53 1 -74 13 -59 -17 -116 -61 -116 -16 0 -13 36 4 50 24 20 21 214
-5 287 -24 69 -24 73 -4 73 8 0 24 -19 35 -44z m-860 17 c13 -16 12 -17 -3 -4
-10 7 -18 15 -18 17 0 8 8 3 21 -13z m689 -19 c0 -2 -7 -4 -15 -4 -8 0 -15 4
-15 10 0 5 7 7 15 4 8 -4 15 -8 15 -10z m-883 -26 c-3 -8 -6 -5 -6 6 -1 11 2
17 5 13 3 -3 4 -12 1 -19z m403 11 c-34 -23 -70 -39 -70 -31 0 5 15 16 33 25
36 18 60 22 37 6z m208 -14 c-19 -18 -31 -43 -40 -85 -13 -65 -24 -75 -34 -34
-11 44 43 144 79 144 21 0 21 -1 -5 -25z m-788 -4 c14 -27 13 -31 -7 -24 -21
8 -34 24 -27 35 9 14 23 9 34 -11z m1088 6 c6 -7 15 -44 20 -82 8 -56 7 -74
-4 -93 -8 -12 -19 -20 -23 -17 -5 2 -11 -5 -14 -16 -3 -12 -11 -19 -19 -16
-17 6 -12 69 7 83 11 8 13 21 9 43 -9 42 13 41 25 -1 12 -43 14 -6 2 45 -5 21
-18 45 -28 52 -16 12 -16 14 -2 15 9 0 21 -6 27 -13z m103 -9 c7 -12 14 -76
17 -142 4 -107 3 -120 -13 -133 -24 -16 -55 -17 -55 0 0 6 9 23 20 37 24 30
25 58 5 88 -11 14 -14 33 -10 54 4 18 2 52 -3 76 -9 38 -8 42 9 42 10 0 24
-10 30 -22z m-591 -43 c-6 -7 -14 -44 -17 -82 -4 -56 -2 -75 11 -96 13 -18 15
-31 8 -43 -9 -15 -10 -15 -17 7 -4 13 -16 35 -26 49 -17 24 -17 28 0 101 11
42 25 87 32 100 l14 24 3 -23 c2 -13 -2 -29 -8 -37z m-110 37 c0 -2 -33 -43
-72 -92 -78 -96 -90 -102 -157 -79 -28 10 -31 15 -31 53 0 39 3 44 35 59 43
21 45 21 45 2 0 -23 14 -18 43 15 15 17 35 30 45 31 15 0 15 1 -2 8 -11 4 4 7
38 7 31 -1 56 -2 56 -4z m85 -2 c-10 -16 -125 -102 -125 -93 0 11 68 77 95 91
25 14 38 15 30 2z m-255 -9 c0 -10 -131 -83 -137 -77 -2 2 -1 15 3 30 5 20 17
29 53 40 56 17 81 19 81 7z m34 -16 c-16 -25 -34 -33 -34 -16 0 12 29 41 41
41 5 0 2 -11 -7 -25z m678 1 c22 -31 28 -91 8 -91 -8 0 -17 14 -21 33 -4 19
-12 39 -18 45 -15 15 -14 37 2 37 6 0 19 -11 29 -24z m-852 -17 c0 -5 -11 -15
-25 -21 -14 -6 -25 -19 -25 -28 0 -22 -25 -44 -40 -35 -25 16 2 80 39 93 28
10 51 5 51 -9z m-115 -14 c-14 -13 -25 -29 -25 -35 0 -6 -4 -9 -10 -5 -20 12
13 65 41 65 16 0 15 -3 -6 -25z m1535 16 c0 -9 -27 -41 -35 -41 -2 0 -11 3
-20 6 -14 6 -12 10 12 25 31 21 43 24 43 10z m66 -10 c-17 -19 -66 -26 -66 -9
0 10 37 26 64 27 18 1 18 0 2 -18z m-1124 -79 c-11 -44 -31 -100 -45 -125 -25
-42 -110 -127 -128 -127 -4 0 17 44 48 98 30 53 73 130 95 170 22 40 42 71 44
69 3 -2 -4 -40 -14 -85z m462 66 c3 -13 6 -34 6 -47 0 -19 -3 -21 -14 -12 -16
14 -29 58 -21 71 10 17 22 11 29 -12z m826 13 c0 -11 -48 -51 -60 -51 -15 0
-4 33 15 46 22 16 45 18 45 5z m-1870 -9 c0 -5 -9 -17 -20 -27 -22 -20 -26
-14 -10 16 11 19 30 26 30 11z m111 -29 c-8 -15 -10 -15 -11 -2 0 17 10 32 18
25 2 -3 -1 -13 -7 -23z m436 -15 c-13 -24 -48 -86 -77 -138 -64 -114 -88 -150
-101 -150 -18 0 0 60 46 156 33 67 57 103 91 133 26 22 51 41 56 41 6 0 -1
-19 -15 -42z m-337 23 c0 -12 -20 -25 -27 -18 -7 7 6 27 18 27 5 0 9 -4 9 -9z
m686 -41 c1 -17 -3 -30 -7 -30 -5 0 -9 14 -9 30 0 39 15 39 16 0z m119 9 c4
-12 2 -26 -4 -32 -13 -13 -16 -10 -25 26 -8 33 19 39 29 6z m-200 -29 c8 -8
16 -32 20 -52 7 -34 5 -38 -14 -38 -14 0 -21 6 -21 19 0 10 -2 40 -5 67 -3 27
-2 42 1 34 4 -8 12 -22 19 -30z m625 -25 c20 -21 33 -47 40 -84 21 -109 7
-109 -50 2 -24 45 -51 94 -61 109 -11 14 -19 29 -19 33 0 11 59 -28 90 -60z
m559 56 c20 -5 22 -8 9 -19 -8 -6 -29 -15 -46 -18 -25 -5 -33 -3 -38 11 -12
29 22 41 75 26z m-1949 -8 c0 -5 -5 -15 -10 -23 -8 -12 -10 -11 -10 8 0 12 5
22 10 22 6 0 10 -3 10 -7z m210 -8 c0 -8 -4 -15 -10 -15 -5 0 -10 7 -10 15 0
8 5 15 10 15 6 0 10 -7 10 -15z m1141 -98 c31 -59 54 -107 50 -107 -4 0 -26
15 -49 32 -44 34 -82 110 -82 164 0 45 22 21 81 -89z m151 98 c13 -17 9 -45
-7 -45 -14 0 -35 29 -35 50 0 13 32 9 42 -5z m143 -15 c17 -32 20 -76 6 -84
-5 -3 -15 13 -23 37 -9 23 -19 50 -23 60 -13 31 23 20 40 -13z m-1591 5 c-7
-17 -7 -17 -28 -9 -24 9 -19 24 9 24 18 0 23 -4 19 -15z m1106 -50 c0 -11 -29
-49 -67 -87 -56 -56 -73 -68 -100 -68 -18 0 -33 5 -33 10 0 6 -17 10 -37 10
l-38 -1 30 -13 30 -13 -35 -7 c-24 -5 -53 -1 -94 14 -71 24 -67 24 -60 5 5
-12 -2 -15 -30 -15 -31 0 -38 4 -46 28 -6 15 -17 39 -25 54 -16 29 -21 128 -6
128 11 0 17 -18 26 -84 7 -55 47 -102 74 -89 18 7 71 7 111 -1 24 -5 25 -5 3
6 -38 19 -26 27 33 23 64 -4 120 17 130 47 3 10 12 18 20 18 23 0 -30 -83 -58
-92 -21 -5 -21 -6 5 -7 24 -1 31 6 56 57 15 33 37 72 49 87 12 15 22 35 22 44
1 24 39 -29 40 -54z m-147 11 c-7 -34 -36 -58 -65 -54 -23 4 -23 5 5 16 15 6
30 19 32 27 3 8 7 22 10 31 8 24 23 7 18 -20z m782 28 c23 -9 45 -57 45 -98 0
-31 -3 -35 -21 -33 -29 5 -48 43 -49 95 0 45 0 45 25 36z m-952 -36 c-5 -10
-33 10 -33 23 0 5 9 4 19 -3 11 -7 17 -16 14 -20z m72 22 c19 -8 19 -8 -5 -18
-17 -6 -29 -6 -37 0 -30 24 -2 36 42 18z m65 -9 c0 -19 -35 -39 -47 -27 -7 7
26 46 39 46 4 0 8 -9 8 -19z m-240 -30 c0 -27 31 -58 73 -74 19 -7 24 -27 6
-27 -14 0 -70 38 -86 58 -15 19 -18 86 -3 77 6 -3 10 -19 10 -34z m130 -25
l35 -16 -44 4 c-48 5 -55 10 -66 46 l-7 25 23 -22 c13 -12 40 -28 59 -37z
m1217 38 c5 -16 -59 -27 -68 -12 -4 7 -5 16 -2 21 7 12 66 4 70 -9z m-1174
-13 c13 -1 -3 -21 -17 -21 -7 0 -21 6 -32 14 -18 14 -17 15 11 11 17 -2 34 -4
38 -4z m104 -35 c-9 -22 -65 -48 -87 -41 -33 11 -24 35 13 35 18 0 42 6 53 14
22 16 29 14 21 -8z m973 -60 c-1 -21 -1 -21 -20 3 -11 13 -20 33 -20 45 1 21
1 21 20 -3 11 -13 20 -33 20 -45z m-1330 -12 c0 -26 45 -65 65 -58 7 3 18 -3
24 -13 5 -11 28 -28 50 -38 22 -10 38 -22 35 -26 -11 -19 -63 -6 -139 35 -70
37 -81 47 -89 78 -5 19 -6 48 -2 63 l7 28 25 -23 c13 -13 24 -34 24 -46z m229
50 c1 -1 0 -7 -3 -12 -7 -11 -96 7 -96 20 0 8 89 1 99 -8z m1345 -4 c17 -6 24
-14 20 -25 -7 -17 -59 -21 -69 -5 -3 6 -16 10 -28 10 -22 1 -22 1 -3 15 23 17
45 19 80 5z m-1133 -59 c-12 -22 -32 -48 -45 -57 -34 -22 -170 -31 -192 -13
-14 11 -8 15 43 25 32 7 73 13 91 13 24 1 44 12 75 40 23 22 43 38 45 36 2 -2
-6 -21 -17 -44z m-1200 -4 c-6 -15 -15 -27 -21 -27 -14 0 -13 38 3 55 18 20
29 2 18 -28z m1269 18 c0 -32 -31 -75 -58 -81 -53 -12 -63 -16 -113 -50 -28
-19 -58 -34 -67 -34 -8 0 -36 12 -61 27 -25 15 -59 35 -76 44 -36 20 -39 43
-6 47 16 3 34 -7 57 -29 33 -32 34 -32 107 -26 69 5 137 27 137 45 0 4 9 22
20 40 21 34 60 45 60 17z m1047 -63 c14 -9 43 -74 43 -96 0 -29 -39 -4 -54 35
-24 60 -20 81 11 61z m-2439 -36 c5 -25 -6 -66 -18 -66 -6 0 -10 21 -10 46 0
32 4 44 13 42 6 -3 14 -13 15 -22z m-143 -68 c-3 -12 -18 -36 -35 -53 l-31
-30 5 30 c3 17 17 40 31 53 32 27 35 27 30 0z"/>
<path d="M2881 1574 c0 -11 3 -14 6 -6 3 7 2 16 -1 19 -3 4 -6 -2 -5 -13z"/>
<path d="M2675 1970 c-25 -11 1 -11 35 0 20 6 21 8 5 8 -11 0 -29 -3 -40 -8z"/>
<path d="M2181 1966 c2 -2 27 -6 54 -9 32 -4 43 -3 30 3 -19 8 -93 14 -84 6z"/>
<path d="M2868 1953 c6 -2 18 -2 25 0 6 3 1 5 -13 5 -14 0 -19 -2 -12 -5z"/>
<path d="M2788 1843 c12 -2 32 -2 45 0 12 2 2 4 -23 4 -25 0 -35 -2 -22 -4z"/>
<path d="M3223 1813 c9 -2 23 -2 30 0 6 3 -1 5 -18 5 -16 0 -22 -2 -12 -5z"/>
<path d="M3308 1803 c6 -2 18 -2 25 0 6 3 1 5 -13 5 -14 0 -19 -2 -12 -5z"/>
<path d="M1824 1785 c-8 -21 4 -35 29 -34 22 0 22 0 -2 10 -15 6 -21 15 -17
24 3 8 3 15 0 15 -2 0 -7 -7 -10 -15z"/>
<path d="M3368 1793 c7 -3 16 -2 19 1 4 3 -2 6 -13 5 -11 0 -14 -3 -6 -6z"/>
<path d="M3408 1783 c7 -3 16 -2 19 1 4 3 -2 6 -13 5 -11 0 -14 -3 -6 -6z"/>
<path d="M3238 1723 c7 -3 16 -2 19 1 4 3 -2 6 -13 5 -11 0 -14 -3 -6 -6z"/>
<path d="M3188 1713 c6 -2 18 -2 25 0 6 3 1 5 -13 5 -14 0 -19 -2 -12 -5z"/>
<path d="M1343 1333 c9 -2 23 -2 30 0 6 3 -1 5 -18 5 -16 0 -22 -2 -12 -5z"/>
<path d="M3968 1144 l-28 -15 0 -190 c0 -196 -7 -237 -47 -281 -25 -28 -71
-23 -83 8 -14 35 -12 145 5 234 7 41 11 77 10 79 -8 8 -75 -42 -75 -56 0 -10
-10 -4 -30 17 -24 26 -35 31 -67 28 -45 -4 -76 -43 -92 -119 -15 -67 -14 -188
2 -218 32 -63 97 -46 145 39 l29 51 12 -48 c16 -61 36 -83 76 -83 35 0 75 35
97 85 l13 30 3 -52 3 -52 29 11 c18 6 30 17 30 28 0 19 38 119 52 135 5 5 8 3
8 -6 0 -42 35 -126 65 -156 55 -55 116 -37 158 47 l25 50 12 -34 c28 -87 124
-113 212 -57 59 37 94 98 103 176 9 86 13 95 41 95 14 0 41 7 61 15 19 8 37
15 38 15 2 0 0 -46 -2 -103 -9 -162 21 -217 117 -217 49 0 64 10 105 65 14 20
14 20 15 0 0 -31 28 -65 54 -65 31 0 63 37 91 106 l25 59 0 -55 0 -56 -68 -60
c-37 -34 -76 -77 -86 -97 -18 -33 -19 -37 -3 -61 35 -53 116 -41 170 26 25 31
31 51 41 129 l11 91 43 30 c23 16 42 31 42 34 0 6 -14 -1 -52 -28 -14 -10 -29
-18 -34 -18 -4 0 -4 63 -1 141 3 77 3 139 -1 137 -63 -32 -59 -25 -65 -112 -6
-97 -20 -147 -51 -183 -20 -24 -26 -25 -40 -14 -20 17 -21 131 -2 239 7 39 10
72 7 72 -3 0 -20 -9 -37 -19 -35 -21 -38 -33 -50 -176 -4 -44 -11 -89 -16
-100 -32 -64 -88 -84 -124 -44 -16 18 -19 37 -19 113 0 50 4 119 8 152 8 53 6
62 -9 68 -9 4 -24 0 -33 -8 -19 -18 -93 -51 -133 -60 -26 -6 -28 -4 -28 24 0
18 -4 29 -10 25 -5 -3 -10 -30 -10 -58 -1 -72 -24 -174 -47 -206 -70 -94 -191
-70 -209 41 l-6 36 41 -5 c35 -5 46 -2 68 18 50 47 69 132 37 177 -12 17 -25
22 -61 22 -39 0 -50 -5 -83 -38 -42 -41 -70 -117 -70 -187 0 -59 -35 -109 -79
-113 -60 -6 -96 51 -107 167 l-6 67 46 47 c44 46 56 67 37 67 -24 0 -95 -100
-162 -227 l-40 -78 5 215 c3 118 8 225 12 238 7 26 0 27 -38 6z m533 -227 c23
-51 -30 -147 -80 -147 -10 0 -26 6 -36 14 -17 12 -18 17 -6 56 24 82 99 128
122 77z m-782 -13 c39 -50 20 -185 -36 -246 -24 -27 -52 -22 -64 10 -17 43 6
191 37 240 19 29 38 28 63 -4z m1442 -375 c-15 -50 -62 -99 -95 -99 -60 0 -40
66 43 142 l56 51 3 -29 c2 -16 -1 -45 -7 -65z"/>
<path d="M108 1130 c-37 -11 -98 -49 -98 -61 0 -6 14 -1 31 12 36 25 110 49
154 49 62 0 99 -79 81 -174 -8 -44 -59 -96 -94 -97 -24 0 -23 -2 12 -15 78
-28 111 -79 104 -160 -6 -70 -27 -94 -84 -94 -23 0 -55 5 -70 10 l-27 11 7
214 6 215 -37 0 -38 0 0 -215 0 -214 24 -11 c38 -18 202 -23 230 -8 95 52 85
202 -17 245 l-35 14 32 20 c37 22 70 88 71 139 0 47 -33 98 -75 116 -37 15
-133 17 -177 4z"/>
<path d="M883 1123 c-27 -14 -33 -22 -33 -50 l0 -33 -72 0 c-40 0 -80 -5 -88
-10 -10 -7 12 -10 71 -10 l85 0 -3 -57 c-1 -32 -4 -94 -6 -138 -4 -94 -34
-161 -76 -172 -46 -11 -53 15 -49 178 l4 147 -31 -21 c-26 -17 -33 -31 -48
-96 -32 -140 -90 -231 -117 -182 -14 27 -12 132 4 216 8 39 13 71 11 73 -1 2
-19 -5 -38 -14 -33 -16 -37 -22 -43 -73 -19 -156 -3 -271 39 -279 42 -8 86 42
123 141 l23 62 1 -50 c1 -101 31 -165 79 -165 38 0 68 25 95 77 l23 46 7 -52
c16 -121 112 -136 165 -27 l18 39 7 -36 c7 -38 46 -77 77 -77 32 0 77 49 92
98 l14 47 15 -36 c49 -112 197 -104 276 16 24 37 32 62 37 121 4 42 12 77 19
78 6 2 29 8 51 13 22 6 47 13 56 17 15 7 16 -3 12 -97 -9 -162 21 -217 116
-217 38 0 52 5 74 27 14 16 30 39 35 53 l9 25 16 -36 c21 -51 61 -79 113 -79
58 0 103 23 139 72 l30 40 13 -46 c16 -54 46 -69 88 -41 26 17 84 126 84 158
0 9 5 17 10 17 6 0 10 -26 10 -57 0 -36 8 -75 20 -100 17 -38 23 -43 53 -43
37 0 67 23 94 73 18 32 18 32 21 -110 l3 -141 26 7 26 7 -2 125 -2 124 31 -37
c33 -40 77 -56 109 -39 77 42 74 357 -5 377 -40 10 -72 -4 -99 -44 l-26 -37 7
38 c7 42 5 43 -36 22 -30 -15 -30 -16 -30 -108 -1 -128 -36 -203 -91 -195 -34
5 -41 46 -34 191 3 70 2 127 -2 127 -4 0 -18 -8 -31 -18 -16 -12 -28 -41 -42
-100 -21 -88 -61 -176 -83 -185 -42 -16 -54 52 -33 192 9 57 14 106 12 108 -7
8 -63 -26 -69 -41 -3 -8 -9 -54 -13 -103 -8 -95 -29 -145 -78 -176 -35 -23
-91 -22 -115 2 -56 56 -51 218 9 284 25 28 31 30 56 22 33 -12 50 -50 40 -89
-7 -30 -32 -44 -48 -28 -7 7 -6 20 5 41 l15 31 -26 -6 c-49 -11 -67 -57 -36
-88 51 -51 125 27 103 108 -12 42 -33 56 -88 56 -76 0 -140 -85 -141 -186 0
-126 -88 -217 -146 -153 -16 18 -19 37 -19 113 0 50 4 119 8 152 8 53 6 62 -9
68 -9 4 -24 0 -33 -8 -24 -21 -92 -52 -128 -59 -31 -6 -33 -5 -33 23 0 17 -4
30 -9 30 -4 0 -11 -39 -14 -87 -8 -115 -22 -160 -61 -199 -76 -76 -176 -45
-193 61 -6 36 -5 37 18 29 37 -12 59 -7 87 18 49 46 67 132 36 176 -12 17 -25
22 -61 22 -39 0 -50 -5 -83 -38 -42 -41 -70 -117 -70 -186 0 -46 -40 -140 -63
-149 -8 -3 -23 3 -34 15 -16 17 -18 42 -21 190 -2 93 -1 180 2 191 5 20 13 22
88 25 45 1 87 7 93 13 7 7 -20 8 -82 3 l-93 -7 0 52 0 52 -28 -17 c-16 -9 -33
-30 -38 -48 -9 -30 -12 -31 -68 -34 l-58 -3 7 50 c4 28 5 51 3 50 -1 0 -18 -8
-35 -16z m142 -255 c-7 -159 -20 -221 -55 -253 -27 -25 -46 -7 -59 56 -12 55
-15 230 -5 303 l7 46 59 0 59 0 -6 -152z m385 46 c14 -36 -4 -98 -37 -123 -30
-24 -52 -26 -78 -7 -17 12 -18 18 -7 54 27 88 100 134 122 76z m1360 0 c21
-55 9 -229 -19 -273 -16 -24 -52 -2 -73 45 -38 88 7 254 69 254 7 0 18 -12 23
-26z"/>
<path d="M3186 1124 c-40 -15 -76 -41 -76 -55 0 -5 16 3 36 16 73 50 161 59
199 21 64 -64 31 -214 -54 -242 l-34 -11 29 -7 c48 -12 75 -35 96 -83 22 -51
19 -106 -8 -149 -17 -25 -56 -31 -123 -18 l-31 7 0 218 0 219 -41 0 c-35 0
-40 -2 -33 -17 4 -10 8 -108 8 -217 l1 -199 24 -9 c13 -4 63 -11 110 -15 70
-4 93 -2 119 11 72 37 84 147 21 212 -18 19 -41 34 -50 34 -10 0 -21 5 -24 10
-3 6 0 10 8 10 15 0 59 44 76 77 6 12 11 44 11 71 0 55 -22 92 -70 117 -37 19
-142 18 -194 -1z"/>
<path d="M3062 338 c-19 -19 -14 -30 8 -18 11 6 20 15 20 20 0 14 -14 12 -28
-2z"/>
<path d="M2060 285 c-8 -9 -10 -28 -6 -49 4 -21 2 -37 -4 -41 -21 -13 -30 -54
-18 -80 14 -31 47 -41 89 -26 21 7 37 7 50 0 21 -11 26 0 8 18 -9 9 -8 22 5
52 13 33 13 41 2 41 -7 0 -16 -14 -20 -32 l-6 -32 -33 32 c-29 30 -30 34 -15
43 49 28 41 89 -11 89 -16 0 -34 -7 -41 -15z m59 -9 c14 -16 5 -42 -16 -51
-23 -8 -37 10 -29 39 7 28 27 34 45 12z m10 -163 c-14 -16 -51 -17 -67 -1 -15
15 -15 51 0 66 18 18 82 -46 67 -65z"/>
<path d="M2401 286 c-32 -18 -50 -53 -51 -99 0 -71 79 -126 144 -101 29 11 17
20 -23 16 -54 -5 -91 30 -91 87 0 59 35 96 89 95 23 -1 41 2 41 7 0 14 -82 10
-109 -5z"/>
<path d="M2635 288 c-44 -124 -63 -194 -55 -202 8 -8 14 2 35 60 5 17 78 11
83 -7 16 -49 23 -62 32 -53 15 15 -52 208 -73 212 -10 2 -19 -2 -22 -10z m49
-95 c7 -21 4 -23 -28 -23 -20 0 -36 1 -36 3 0 2 8 26 17 53 l17 49 12 -30 c6
-17 15 -40 18 -52z"/>
<path d="M2812 193 c3 -110 20 -150 26 -60 l3 47 40 0 c21 0 39 5 39 10 0 6
-18 10 -40 10 l-40 0 0 40 0 40 45 0 c25 0 45 5 45 10 0 6 -27 10 -60 10 l-61
0 3 -107z"/>
<path d="M3000 195 l0 -105 61 0 c36 0 58 4 54 10 -3 5 -25 8 -48 7 l-42 -2 0
40 c0 40 0 40 43 43 56 4 54 22 -3 22 -45 0 -45 0 -45 35 0 35 0 35 45 35 25
0 45 5 45 10 0 6 -25 10 -55 10 l-55 0 0 -105z"/>
<path d="M40 180 c0 -7 318 -10 935 -10 617 0 935 3 935 10 0 7 -318 10 -935
10 -617 0 -935 -3 -935 -10z"/>
<path d="M3405 180 c4 -7 328 -10 941 -10 616 0 934 3 934 10 0 7 -320 10
-941 10 -624 0 -938 -3 -934 -10z"/>
</g>
</svg>
